<svg width="54" height="54" viewBox="0 0 54 54" fill="none" xmlns="http://www.w3.org/2000/svg">
<g clip-path="url(#clip0_205_66)">
<rect x="19" y="19" width="16" height="16" fill="#2D654B"/>
<path d="M2.29508 30.3749H1.08008V6.74995C1.08008 6.41414 1.35177 6.14245 1.68758 6.14245H17.0961L13.0714 2.11608L13.9304 1.25714L19.4215 6.74995L13.9287 12.2411L13.0714 11.3838L17.0961 7.35745H2.29508V30.3749ZM51.7051 46.6424H36.9057L40.9321 42.6178L40.0714 41.7571L34.5786 47.2499L40.0698 52.7427L40.9304 51.8821L36.904 47.8574H52.3126C52.6484 47.8574 52.9201 47.5857 52.9201 47.2499V23.6249H51.7051V46.6424ZM48.9376 6.14245H38.8126V7.35745H48.9376V6.14245ZM48.9376 9.51745H38.8126V10.7325H48.9376V9.51745ZM45.5626 12.8925H38.8126V14.1075H45.5626V12.8925ZM15.1876 39.8924H5.06258V41.1091H15.1876V39.8924ZM15.1876 43.2674H5.06258V44.4841H15.1876V43.2674ZM11.8126 46.6424H5.06258V47.8591H11.8126V46.6424ZM28.6876 25.3124C28.6876 24.3809 27.9316 23.6249 27.0001 23.6249C26.0686 23.6249 25.3126 24.3809 25.3126 25.3124C25.3126 26.0296 25.7631 26.6321 26.3926 26.8768V28.6874C26.3926 29.0233 26.6643 29.2949 27.0001 29.2949C27.3359 29.2949 27.6076 29.0233 27.6076 28.6874V26.8768C28.237 26.6321 28.6876 26.0296 28.6876 25.3124ZM52.9201 1.68746V18.5624C52.9201 18.8983 52.6484 19.1699 52.3126 19.1699H36.0451V35.4374C36.0451 35.7733 35.7734 36.0449 35.4376 36.0449H19.1701V52.3124C19.1701 52.6482 18.8984 52.9199 18.5626 52.9199H1.68758C1.35177 52.9199 1.08008 52.6482 1.08008 52.3124V35.4374C1.08008 35.1016 1.35177 34.8299 1.68758 34.8299H17.9551V18.5624C17.9551 18.2266 18.2268 17.9549 18.5626 17.9549H22.1738V14.3437C22.1738 11.6825 24.3389 9.51745 27.0001 9.51745C29.6613 9.51745 31.8263 11.6825 31.8263 14.3437V17.9549H34.8284V1.68746C34.8284 1.35164 35.1001 1.07996 35.4359 1.07996H52.3109C52.6484 1.07996 52.9201 1.35164 52.9201 1.68746ZM23.3888 17.9549H30.6113V14.3437C30.6113 12.3525 28.9913 10.7325 27.0001 10.7325C25.0088 10.7325 23.3888 12.3525 23.3888 14.3437V17.9549ZM17.9551 36.0449H2.29508V51.7032H17.9551V36.0449ZM34.8301 19.1699H19.1701V34.8299H34.8301V19.1699ZM51.7051 2.29496H36.0451V17.9549H51.7034L51.7051 2.29496Z" fill="black"/>
</g>
<defs>
<clipPath id="clip0_205_66">
<rect width="54" height="54" fill="white"/>
</clipPath>
</defs>
</svg>
