<svg width="83" height="71" viewBox="0 0 83 71" fill="none" xmlns="http://www.w3.org/2000/svg">
<ellipse cx="54" cy="28.5" rx="29" ry="28.5" fill="#87C5A7"/>
<g clip-path="url(#clip0_200_62)">
<path d="M59.9322 42.7385V20.2881V8.76271C59.9322 8.12536 59.4159 7.61017 58.7797 7.61017H53.0169V4.15254C53.0169 3.51519 52.5006 3 51.8644 3H43.7966C43.1604 3 42.6441 3.51519 42.6441 4.15254V7.61017H17.2881V4.15254C17.2881 3.51519 16.7718 3 16.1356 3H8.0678C7.43159 3 6.91525 3.51519 6.91525 4.15254V7.61017H1.15254C0.516339 7.61017 0 8.12536 0 8.76271V20.2881V67.5424C0 68.1797 0.516339 68.6949 1.15254 68.6949H45.069C47.3764 70.1471 50.0964 71 53.0169 71C61.2784 71 68 64.2784 68 56.0169C68 50.2508 64.7199 45.2418 59.9322 42.7385ZM44.9492 5.30508H50.7119V8.76271V12.2203H44.9492V8.76271V5.30508ZM9.22034 5.30508H14.9831V8.76271V12.2203H9.22034V8.76271V5.30508ZM2.30508 9.91525H6.91525V13.3729C6.91525 14.0102 7.43159 14.5254 8.0678 14.5254H16.1356C16.7718 14.5254 17.2881 14.0102 17.2881 13.3729V9.91525H42.6441V13.3729C42.6441 14.0102 43.1604 14.5254 43.7966 14.5254H51.8644C52.5006 14.5254 53.0169 14.0102 53.0169 13.3729V9.91525H57.6271V19.1356H2.30508V9.91525ZM2.30508 66.3898V21.4407H57.6271V41.7669C57.4012 41.6943 57.1707 41.6355 56.9402 41.5721C56.727 41.5134 56.5138 41.4557 56.2982 41.4062C56.1035 41.3624 55.9064 41.3243 55.7093 41.2886C55.4281 41.2367 55.1457 41.1941 54.8622 41.1584C54.7043 41.1388 54.5475 41.1169 54.3885 41.1019C53.9344 41.0616 53.4768 41.0339 53.0169 41.0339C52.6274 41.0339 52.2459 41.0627 51.8644 41.0927V39.8814V37.5763V27.2034H41.4915H39.1864H31.1186H28.8136H20.7458H18.4407H8.0678V37.5763V39.8814V47.9492V50.2542V60.6271H18.4407H20.7458H28.8136H31.1186H38.7669C38.8003 60.7285 38.8418 60.8265 38.8764 60.9268C38.9732 61.2068 39.0689 61.4881 39.183 61.7612C39.2464 61.9145 39.3213 62.0609 39.3904 62.2107C39.523 62.5035 39.6578 62.795 39.8088 63.0786C39.8757 63.2019 39.9506 63.3206 40.0209 63.4428C40.1915 63.7413 40.3643 64.0363 40.5557 64.3222C40.626 64.4271 40.7032 64.5262 40.7758 64.6299C40.9786 64.918 41.1861 65.2039 41.4108 65.4782C41.4938 65.5796 41.5837 65.6741 41.669 65.7732C41.8477 65.9807 42.0182 66.1927 42.2084 66.391L2.30508 66.3898ZM46.4624 42.5645C46.338 42.6244 46.2112 42.6809 46.089 42.7443C45.8723 42.8572 45.6626 42.9817 45.4528 43.105C45.2696 43.2122 45.0863 43.3217 44.9077 43.4358C44.7267 43.5534 44.5504 43.6732 44.3752 43.7977C44.1758 43.9383 43.9822 44.0858 43.7897 44.2357C43.6353 44.3567 43.4808 44.4765 43.3321 44.6045C43.1304 44.7751 42.938 44.956 42.7455 45.137C42.6129 45.2626 42.4758 45.3836 42.3479 45.5127C42.1393 45.7247 41.9422 45.9495 41.7462 46.1742C41.6633 46.2699 41.5722 46.3575 41.4904 46.4555V39.8814H49.5582V41.4511C49.5386 41.4557 49.5201 41.4626 49.5017 41.4673C48.4402 41.7243 47.4237 42.0942 46.4624 42.5645ZM38.6908 51.6361C38.6505 51.7687 38.624 51.9047 38.5871 52.0384C38.4949 52.3726 38.4004 52.7068 38.3313 53.0515C38.2771 53.3177 38.2471 53.5897 38.2079 53.8594C38.1768 54.0772 38.133 54.2916 38.11 54.5129C38.0604 55.0096 38.0339 55.5121 38.0339 56.0169C38.0339 56.433 38.0569 56.8537 38.095 57.2755C38.1019 57.3527 38.1019 57.4311 38.11 57.5083C38.1284 57.695 38.1653 57.876 38.1906 58.0604C38.2033 58.148 38.2079 58.2356 38.2218 58.322H31.1186V50.2542H39.1864V50.2623C39.1749 50.29 39.168 50.3188 39.1565 50.3464C38.9836 50.7671 38.8257 51.197 38.6908 51.6361ZM10.3729 50.2542H18.4407V58.322H10.3729V50.2542ZM10.3729 39.8814H18.4407V47.9492H10.3729V39.8814ZM49.5593 37.5763H41.4915V29.5085H49.5593V37.5763ZM39.1864 37.5763H31.1186V29.5085H39.1864V37.5763ZM39.1864 47.9492H31.1186V39.8814H39.1864V47.9492ZM20.7458 39.8814H28.8136V47.9492H20.7458V39.8814ZM28.8136 37.5763H20.7458V29.5085H28.8136V37.5763ZM18.4407 37.5763H10.3729V29.5085H18.4407V37.5763ZM20.7458 50.2542H28.8136V58.322H20.7458V50.2542ZM53.0169 68.6949C50.4145 68.6949 47.993 67.9043 45.9784 66.5535C45.5854 66.2907 45.2142 66.0049 44.8581 65.7052C44.7336 65.5992 44.6161 65.4862 44.4962 65.3756C44.2691 65.1693 44.049 64.9572 43.8393 64.7371C43.7044 64.5953 43.5742 64.4513 43.4462 64.3049C43.2572 64.0871 43.0797 63.8623 42.9068 63.6329C42.7962 63.4866 42.6821 63.3448 42.5772 63.1938C42.3225 62.8239 42.0828 62.4435 41.8684 62.0494C41.8188 61.9572 41.7797 61.8603 41.7324 61.767C41.5641 61.4374 41.4074 61.1031 41.2679 60.7597C41.208 60.6098 41.1561 60.4565 41.1008 60.3044C40.9925 60.0024 40.8934 59.6959 40.8069 59.3858C40.7873 59.3144 40.77 59.2429 40.7516 59.1715C40.6214 58.6643 40.5257 58.1607 40.4577 57.6593C40.4531 57.6236 40.4462 57.5879 40.4416 57.551C40.3747 57.0335 40.339 56.5206 40.339 56.0169C40.339 55.5801 40.3609 55.1468 40.4058 54.7169C40.4093 54.6812 40.4185 54.6466 40.422 54.6108C40.4658 54.2178 40.5234 53.826 40.6041 53.4399C40.6121 53.403 40.6248 53.3673 40.6329 53.3304C40.7159 52.9477 40.8138 52.5674 40.9325 52.1917C40.9464 52.1479 40.966 52.1052 40.9798 52.0614C41.0985 51.7018 41.2299 51.3445 41.382 50.9942C41.5249 50.6645 41.6794 50.3407 41.8488 50.026L41.9629 49.8289C42.009 49.746 42.0632 49.6676 42.1116 49.5858C42.3121 49.2481 42.5265 48.9207 42.7536 48.6049C42.81 48.5266 42.8688 48.4494 42.9276 48.3721C43.135 48.0978 43.354 47.8339 43.5822 47.5792C43.6618 47.4904 43.7413 47.4005 43.8231 47.3141C44.049 47.0744 44.2864 46.8473 44.5296 46.6272C44.6161 46.5488 44.7002 46.4681 44.7889 46.3921C45.0748 46.1477 45.371 45.9184 45.6764 45.7005C45.7248 45.666 45.7709 45.6279 45.8193 45.5934C47.3234 44.5538 49.051 43.8415 50.9043 43.5303L50.9285 43.5268C51.6085 43.4127 52.3035 43.339 53.0169 43.339C53.4653 43.339 53.9113 43.3632 54.3539 43.4116C54.423 43.4185 54.4899 43.4346 54.5591 43.4427C54.9371 43.49 55.314 43.5464 55.6862 43.6271C55.7323 43.6375 55.7761 43.6513 55.8211 43.6617C56.2176 43.7527 56.6106 43.8588 56.999 43.989C57.0255 43.9982 57.0508 44.0086 57.0774 44.0178C57.475 44.1538 57.8668 44.3094 58.2553 44.4858C62.6372 46.4843 65.6949 50.8962 65.6949 56.0169C65.6949 63.0071 60.0071 68.6949 53.0169 68.6949Z" fill="black"/>
<path d="M59.9321 54.9566H54.1693V49.1939C54.1693 48.5566 53.653 48.0414 53.0168 48.0414C52.3806 48.0414 51.8643 48.5566 51.8643 49.1939V54.9566V57.2617H54.1693H59.9321C60.5683 57.2617 61.0846 56.7465 61.0846 56.1092C61.0846 55.4718 60.5683 54.9566 59.9321 54.9566Z" fill="black"/>
</g>
<defs>
<clipPath id="clip0_200_62">
<rect width="68" height="68" fill="white" transform="translate(0 3)"/>
</clipPath>
</defs>
</svg>
