<svg width="81" height="90" viewBox="0 0 81 90" fill="none" xmlns="http://www.w3.org/2000/svg">
<rect x="5" y="82" width="15" height="5" fill="#D9D9D9"/>
<path d="M12.5 61H15.5" stroke="black" stroke-width="3"/>
<path d="M21 84.5L18 88.5H6L4 84.5V54.5H21V57.5M21 84.5V57.5M21 84.5H27.5L30.5 87.5H61V79.5M21 57.5H24.5L37 44.5V34H45L47.5 38V48L44 51V54.5H65.5V61L64 62M59.5 62H64M64 62V71M64 71H59.5M64 71V78.5L61 79.5M61 79.5H56.7413" stroke="black" stroke-width="3"/>
<path d="M45 12.5L41 1.5H40.5L37 12L26.5 13.5V14L34.5 20L30.5 30.5L31 31L41 24.5L50 31L51 30.5L47.5 20L55 13.5V13L45 12.5Z" fill="#D4FFF5" stroke="#2C614F" stroke-width="3"/>
<path d="M14.9825 20.2295L12.1754 13H11.8246L9.36842 20.2295L2 21.2623V21.6066L7.61404 25.7377L4.45614 33.3115L4.80702 33.6557L12.1754 28.8361L18.8421 34L19.193 33.6557L16.7368 25.7377L22 21.2623V20.918L18.4912 20.5738L14.9825 20.2295Z" stroke="black" stroke-width="3"/>
<path d="M71.9825 20.2295L69.1754 13H68.8246L66.3684 20.2295L59 21.2623V21.6066L64.614 25.7377L61.4561 33.3115L61.807 33.6557L69.1754 28.8361L75.8421 34L76.193 33.6557L73.7368 25.7377L79 21.2623V20.918L75.4912 20.5738L71.9825 20.2295Z" stroke="black" stroke-width="3"/>
</svg>
