<svg width="90" height="88" viewBox="0 0 90 88" fill="none" xmlns="http://www.w3.org/2000/svg">
<path d="M46.4459 13.5296L55.9173 21.7646M46.4459 13.5296V10.2355H44.7459M46.4459 13.5296H44.7459M55.9173 21.7646L44.7459 25.0587L22.6459 18.8137M55.9173 21.7646L83.8459 14V13.5294L44.7459 2L3.94587 13.5294V14L22.6459 18.8137M56.6459 30.0002H55C54.5 30 53.5291 31.6621 53.2459 33.294M56.6459 30.0002V21.5621M56.6459 30.0002H58.2459C59 30 59.7048 31.264 60.0459 33.294M53.2459 33.294V39.8822M53.2459 33.294H22.6459M53.2459 39.8822H15.8459C14.7545 40.5464 14.4383 40.9218 14.1459 41.5293C13.8658 42.1732 13.875 42.5324 14.1459 43.1763C14.3965 43.8345 14.7246 44.1949 15.8459 44.8234H80.4459V49.7645M53.2459 39.8822C54.5 42.5 59 42 60.0459 39.8822M60.0459 39.8822V33.294M60.0459 39.8822H80.4459V33.294H66.8459M60.0459 33.294H66.8459M22.6459 18.8137V33.294M22.6459 33.294H15.8459C12.2315 34.7088 10.5133 35.6666 9.04587 38.2352C7.92041 41.5392 7.92884 43.3346 9.04587 46.4704C10.709 48.6987 12.4235 49.2026 15.8459 49.7645H80.4459M66.8459 18.7263V33.294M80.4459 49.7645L5.64587 49.7648C3.75366 50.5753 2.5624 51.3033 2.24512 52C1.95266 52.6422 1.94441 54.0633 2.24587 54.7057C3.31385 55.6736 4.09424 56.0242 5.64587 56.353M80.4459 49.7645C85.2711 51.814 86.9412 53.2129 87.2459 56.353C87.2459 56.353 87.7471 60.8825 87.2459 62.9412C86.7447 65 85.4126 66.6251 83.8459 67.8824M83.8459 67.8824H3.94587C2.94751 67.3125 2.49129 66.9724 2.24587 66.2354C1.91171 65.5939 1.92443 65.2301 2.24587 64.588C3.31507 63.3937 4.12059 63.1555 5.64587 62.9412M83.8459 67.8824C85.2114 68.2331 85.9688 68.4763 87.2459 69.5295C87.5981 70.1715 87.6453 70.534 87.2459 71.1762C86.5035 72.1425 85.7233 72.4991 83.8459 72.8236M83.8459 67.8824H9.04587C5.82201 69.2179 2.35683 72.5 2.24483 74C2.02012 77.0094 2.004 77.2884 2.24587 79.4118C2.97655 83.5247 4.35833 85.0475 9.04587 86H83.8459C85.9691 85.4242 86.7754 84.726 87.2459 84C87.4779 83.1653 87.4191 82.9817 87.2459 82.5C86.8292 81.0871 85.9586 80.5881 83.8459 79.4118M5.64587 56.353H77.0459L80.4459 58.0001V61.2942L77.0459 62.9412H5.64587M5.64587 56.353V62.9412M83.8459 79.4118H12.4459C10.8772 79.1827 10.1059 78.8356 9.04587 77.7647C8.20342 76.4277 8.36766 75.7448 9.04587 74.4706C10.0393 73.3117 10.851 73.053 12.4459 72.8236H83.8459M83.8459 79.4118V72.8236M77.0459 39.8825V44.8237M44.7459 10.2355H43.0459V13.5296H44.7459M44.7459 10.2355V13.5296" stroke="black" stroke-width="3"/>
<path d="M17.2456 73.4705V57H24.0456V71.8235L20.6456 76.7646L17.2456 73.4705Z" fill="#2D654B"/>
</svg>
