<svg width="79" height="90" viewBox="0 0 79 90" fill="none" xmlns="http://www.w3.org/2000/svg">
<path d="M26.0001 39V42M26.0001 42H22.0001C22.0001 42 21.5001 47 22.0001 48C22.5001 49 26.0001 48 26.0001 48M26.0001 42V48M26.0001 48V51.5C28.0742 54.277 30.1851 56.1813 32.5 57.3152M51.5001 48V51C48.3597 55.1566 44.5001 58.5 41.0001 58.5C37.5001 58.5 36.5001 58.5 36.5001 58.5C35.0877 58.3235 33.7635 57.9341 32.5 57.3152M51.5001 48C51.5001 48 54.5001 48.5 55.5001 48C56.5001 47.5 55.5001 41.5 55.5001 41.5H51.5001M51.5001 48V41.5M51.5001 41.5V39.5M32.5 57.3152V62M38.5 70L32.5 65.5V62M38.5 70L46 64V62M38.5 70L35 75L24.5 65M38.5 70L42.5 75.5L52.5 65.5M46 57.3152V62M32.5 62C29.4361 62.5424 25.1921 63.2626 22.5 65C22.5 65 21.5 65.5 16.5 67C11.5 68.5 8.81777 73.7702 6 79.5V88.5H19.5M19.5 88.5V84M19.5 88.5H59.5M59.5 88.5V84M59.5 88.5H69.5V79.5C66 70.5 58.6584 65.5671 52.5 65.5M52.5 65.5C52.5 65.5 51.5 64.5 49.5 63.5C47.5 62.5 46 62 46 62" stroke="black" stroke-width="3"/>
<path d="M23.5 38C30.6201 38.0371 36 36 36 30.5C36 38 42 38.5 52.5 38.5M3 25L22 35H23C23 35 23 24 23 22C23 20 24 18.5 25.5 18.5C27 18.5 47 18.5 49 18.5C51 18.5 52.5 20 52.5 22C52.5 24 52.5 36 52.5 36H53.5L75.5 25L39.5 2L10.9348 20L3 25Z" stroke="black" stroke-width="3"/>
<path d="M11 20V34" stroke="black" stroke-width="3"/>
<path d="M14 50H8V34H14V50Z" fill="#2D654B"/>
<path d="M22.5 30C30.9 26.4 37 24 44.5 26C52 28 52.5 29.5 52.5 29.5" stroke="black" stroke-width="3"/>
</svg>
