<svg width="82" height="73" viewBox="0 0 82 73" fill="none" xmlns="http://www.w3.org/2000/svg">
<ellipse cx="29" cy="28.5" rx="29" ry="28.5" fill="#87C5A7"/>
<path d="M44.5 3C28.9668 3 16.375 14.7523 16.375 29.25C16.375 35.4603 19.307 40.9214 22.552 45.6562L42.5875 72.0769C43.027 72.6566 43.7406 73 44.5 73C45.2594 73 45.973 72.6566 46.4125 72.0769L66.448 45.6562C69.5488 41.7603 72.625 35.4603 72.625 29.25C72.625 14.7523 60.0332 3 44.5 3ZM63.352 45.6562H63.3402L44.5 69.7188L25.6598 45.6562H25.648C22.784 41.7942 18.7188 35.5927 18.7188 29.25C18.7188 15.9609 30.2617 5.1875 44.5 5.1875C58.7383 5.1875 70.2812 15.9609 70.2812 29.25C70.2812 35.5927 65.923 42.1355 63.352 45.6562Z" fill="black"/>
<path d="M44 18C36.8201 18 31 23.5975 31 30.5C31 37.4025 36.8201 43 44 43C51.1799 43 57 37.4025 57 30.5C57 23.5975 51.1799 18 44 18ZM44 40.5C38.2566 40.5 33.6 36.0225 33.6 30.5C33.6 24.9775 38.2566 20.5 44 20.5C49.7434 20.5 54.4 24.9775 54.4 30.5C54.4 36.0225 49.7434 40.5 44 40.5Z" fill="black"/>
</svg>
