<svg width="220" height="86" viewBox="0 0 220 86" fill="none" xmlns="http://www.w3.org/2000/svg">
<path d="M96.2988 39.2354V47.1719C95.5781 46.9258 94.7695 46.8027 93.873 46.8027C92.291 46.8027 90.9727 47.3828 89.918 48.543C88.8809 49.6855 88.3623 51.3027 88.3623 53.3945V67H80.6895V39.7363H88.3623V41.6084C89.8916 39.9561 91.9131 39.1299 94.4268 39.1299C95.2002 39.1299 95.8242 39.165 96.2988 39.2354ZM120.054 57.5605L126.039 62.2539C124.721 63.9062 123.077 65.2158 121.108 66.1826C119.157 67.1318 117.074 67.6064 114.859 67.6064C112.943 67.6064 111.106 67.2285 109.348 66.4727C107.608 65.7168 106.105 64.7061 104.84 63.4404C103.574 62.1572 102.563 60.6455 101.807 58.9053C101.069 57.1475 100.7 55.3105 100.7 53.3945C100.7 50.8105 101.333 48.4287 102.598 46.249C103.864 44.0518 105.578 42.3203 107.74 41.0547C109.92 39.7715 112.293 39.1299 114.859 39.1299C117.004 39.1299 119.025 39.6133 120.924 40.5801C122.84 41.5293 124.474 42.8301 125.828 44.4824L119.711 49.2285C118.551 47.6113 116.933 46.8027 114.859 46.8027C113.084 46.8027 111.572 47.4355 110.324 48.7012C109.094 49.9492 108.478 51.5137 108.478 53.3945C108.478 55.3105 109.094 56.8926 110.324 58.1406C111.572 59.3711 113.084 59.9863 114.859 59.9863C117.039 59.9863 118.77 59.1777 120.054 57.5605ZM158.864 53.3945V67H151.244V53.3945C151.244 51.2852 150.708 49.6592 149.635 48.5166C148.581 47.374 147.227 46.8027 145.575 46.8027C143.835 46.8027 142.305 47.4355 140.987 48.7012C139.686 49.9668 139.036 51.5312 139.036 53.3945V67H131.363V26.7637H139.036V41.6611C139.704 40.835 140.723 40.2109 142.094 39.7891C143.466 39.3496 144.845 39.1299 146.234 39.1299C148.66 39.1299 150.84 39.7715 152.773 41.0547C154.724 42.3379 156.227 44.0605 157.282 46.2227C158.337 48.3848 158.864 50.7754 158.864 53.3945ZM169.804 34.9111C168.609 34.9111 167.572 34.4805 166.693 33.6191C165.814 32.7578 165.375 31.7383 165.375 30.5605C165.375 29.4707 165.814 28.4951 166.693 27.6338C167.589 26.7725 168.626 26.3418 169.804 26.3418C171.07 26.3418 172.151 26.7637 173.047 27.6074C173.944 28.4512 174.392 29.4355 174.392 30.5605C174.392 31.7559 173.944 32.7842 173.047 33.6455C172.168 34.4893 171.087 34.9111 169.804 34.9111ZM173.68 39.7363V67H166.007V39.7363H173.68ZM197.013 26.3945V34.2783C195.273 34.2783 193.858 34.7441 192.768 35.6758C191.678 36.5898 191.133 37.7236 191.133 39.0771V39.7363H196.486V46.8027H191.133V67H183.46V46.8027H179.743V39.7363H183.46V39.3408C183.46 36.8799 184.076 34.6562 185.306 32.6699C186.536 30.666 188.18 29.1191 190.237 28.0293C192.293 26.9395 194.552 26.3945 197.013 26.3945ZM218.658 46.8027H212.172V55.5039C212.172 56.9805 212.752 58.0967 213.912 58.8525C215.09 59.6084 216.611 59.9863 218.474 59.9863V67.6064C214.378 67.6064 211.021 66.5078 208.402 64.3105C205.8 62.0957 204.499 59.2305 204.499 55.7148V46.8027H200.386V39.7363H204.499V36.1768L212.172 30.6133V39.7363H218.658V46.8027Z" fill="#737373"/>
<path d="M44.5 0.5L0.5 85.5H16L44.5 30.5H45.5L74.5 85.5H89.5L45.5 0.5H44.5Z" fill="#008037"/>
<path d="M51 74.5L44.5 61.5L38 74.5H51Z" fill="#008037"/>
<path d="M44.5 0.5L0.5 85.5H16L44.5 30.5H45.5L74.5 85.5H89.5L45.5 0.5H44.5Z"/>
<path d="M51 74.5L44.5 61.5L38 74.5H51Z"/>
</svg>
