<svg width="54" height="54" viewBox="0 0 54 54" fill="none" xmlns="http://www.w3.org/2000/svg">
<path d="M26.5 26L26 27.5L24 28L22.5 27L21.5 28L22.5 30L22 31.5L20 32V33L22 34L22.5 35.5L21.5 37L22.5 38L24 37L26 38L26.5 39.5H27.5L28 38L30 37L31.5 38L32.5 37L31.5 35.5L32 34L34 33V32L32 31.5L31.5 30L32 28.5V28L31.5 27.5L30 28L28 27.5L27.5 26H26.5Z" fill="#2D654B"/>
<path d="M27 22.36C23.5107 22.36 20.6719 19.5212 20.6719 16.0319C20.6719 12.5425 23.5107 9.70374 27 9.70374C30.4893 9.70374 33.3281 12.5425 33.3281 16.0319C33.3281 19.5212 30.4893 22.36 27 22.36ZM27 10.7584C24.0922 10.7584 21.7266 13.1241 21.7266 16.0319C21.7266 18.9396 24.0922 21.3053 27 21.3053C29.9078 21.3053 32.2734 18.9396 32.2734 16.0319C32.2734 13.1241 29.9078 10.7584 27 10.7584Z" fill="black"/>
<path d="M29.1099 17.614C28.9395 17.614 28.7723 17.5315 28.6707 17.3791C28.5091 17.1369 28.5746 16.8094 28.817 16.6478L29.7409 16.0319L28.817 15.4159C28.5746 15.2544 28.5091 14.927 28.6707 14.6846C28.832 14.4423 29.1596 14.3768 29.402 14.5383L30.984 15.593C31.1307 15.6908 31.2189 15.8554 31.2189 16.0318C31.2189 16.2081 31.1307 16.3728 30.984 16.4705L29.402 17.5252C29.312 17.5853 29.2105 17.614 29.1099 17.614Z" fill="black"/>
<path d="M24.8902 17.6139C24.7897 17.6139 24.688 17.5852 24.5982 17.5253L23.0161 16.4707C22.8694 16.3729 22.7812 16.2082 22.7812 16.0319C22.7812 15.8556 22.8693 15.6909 23.0161 15.5932L24.5982 14.5385C24.8403 14.3769 25.1679 14.4424 25.3295 14.6847C25.4911 14.927 25.4256 15.2545 25.1832 15.4161L24.2593 16.032L25.1832 16.6479C25.4256 16.8095 25.491 17.1369 25.3295 17.3793C25.2278 17.5315 25.0605 17.6139 24.8902 17.6139Z" fill="black"/>
<path d="M25.9456 19.7234C25.8903 19.7234 25.8341 19.7147 25.7788 19.6962C25.5024 19.604 25.3531 19.3055 25.4452 19.0291L27.5545 12.701C27.6467 12.4247 27.9456 12.2756 28.2215 12.3674C28.4978 12.4596 28.6471 12.7582 28.555 13.0345L26.4456 19.3626C26.3722 19.5837 26.1665 19.7234 25.9456 19.7234Z" fill="black"/>
<path d="M27.6774 40.1836H26.3231C26.0762 40.1836 25.8623 40.0122 25.8084 39.7712L25.4275 38.0663C25.0166 37.9485 24.6201 37.784 24.2425 37.5749L22.7634 38.5114C22.5549 38.6432 22.2829 38.6133 22.1084 38.4387L21.1517 37.482C20.9773 37.3077 20.9471 37.0355 21.079 36.827L22.0152 35.3485C21.8065 34.9727 21.6421 34.576 21.524 34.1629L19.8191 33.7822C19.5781 33.7283 19.4067 33.5145 19.4067 33.2675V31.9132C19.4067 31.6661 19.5781 31.4524 19.8191 31.3985L21.5241 31.0177C21.6419 30.6068 21.8064 30.2102 22.0155 29.8327L21.079 28.3536C20.9471 28.1451 20.9773 27.873 21.1517 27.6986L22.1084 26.7419C22.2832 26.5673 22.5555 26.5373 22.7639 26.6696L24.2421 27.6079C24.6155 27.4002 25.0121 27.2354 25.4273 27.1155L25.8084 25.4093C25.8623 25.1683 26.0762 24.9969 26.3231 24.9969H27.6774C27.9244 24.9969 28.1382 25.1683 28.1921 25.4093L28.5731 27.1155C28.9884 27.2354 29.3848 27.4002 29.7583 27.6079L31.2364 26.6696C31.4449 26.5372 31.7174 26.5672 31.8919 26.7419L32.8486 27.6985C33.0231 27.873 33.0532 28.1451 32.9213 28.3536L31.9848 29.8327C32.1939 30.2102 32.3583 30.6068 32.4761 31.0176L34.1811 31.3985C34.4221 31.4524 34.5935 31.6661 34.5935 31.9132V33.2675C34.5935 33.5145 34.4221 33.7283 34.1811 33.7822L32.4761 34.163C32.3583 34.5739 32.1939 34.9704 31.9847 35.3478L32.9213 36.8269C33.0532 37.0354 33.0231 37.3076 32.8486 37.4819L31.8919 38.4386C31.7177 38.6131 31.4456 38.6434 31.2369 38.5113L29.7583 37.5751C29.3826 37.7838 28.9859 37.9482 28.5728 38.0663L28.1921 39.7711C28.1382 40.0122 27.9244 40.1836 27.6774 40.1836ZM26.7456 39.1289H27.2548L27.6141 37.5203C27.6587 37.3206 27.8147 37.1649 28.0144 37.1205C28.5375 37.0041 29.0318 36.7994 29.484 36.5118C29.6562 36.402 29.8764 36.4018 30.0492 36.5111L31.4445 37.3945L31.8044 37.0346L30.921 35.6394C30.812 35.4671 30.8119 35.2476 30.9208 35.0754C31.21 34.6181 31.4151 34.1232 31.5304 33.6044C31.5748 33.4047 31.7305 33.2488 31.9302 33.2042L33.5388 32.8449V32.3358L31.9302 31.9764C31.7305 31.9318 31.5748 31.7759 31.5304 31.5762C31.415 31.0573 31.21 30.5624 30.9209 30.1053C30.8119 29.9331 30.812 29.7135 30.921 29.5413L31.8044 28.1459L31.4449 27.7865L30.0497 28.6722C29.8767 28.7819 29.6558 28.7817 29.4832 28.6714C29.0357 28.3855 28.5406 28.1797 28.0119 28.0595C27.8134 28.0144 27.6585 27.859 27.6142 27.6602L27.2549 26.0516H26.7457L26.3863 27.6602C26.3419 27.859 26.1871 28.0144 25.9885 28.0595C25.4598 28.1797 24.9647 28.3855 24.5171 28.6714C24.3444 28.7817 24.1235 28.7818 23.9506 28.6722L22.5554 27.7865L22.1959 28.1459L23.0793 29.5413C23.1883 29.7135 23.1883 29.9331 23.0794 30.1053C22.7902 30.5624 22.5851 31.0573 22.4699 31.5761C22.4256 31.7758 22.2697 31.9318 22.07 31.9764L20.4614 32.3358V32.8449L22.07 33.2042C22.2697 33.2488 22.4256 33.4048 22.4699 33.6044C22.5861 34.1275 22.7909 34.6219 23.0786 35.0741C23.1883 35.2466 23.1885 35.4668 23.0793 35.6394L22.1959 37.0346L22.5557 37.3945L23.9511 36.5111C24.1233 36.4021 24.3428 36.4019 24.5151 36.5109C24.9722 36.8001 25.4671 37.0053 25.986 37.1205C26.1856 37.1649 26.3417 37.3206 26.3862 37.5203L26.7456 39.1289Z" fill="black"/>
<path d="M27.003 35.528C25.3816 35.528 24.0625 34.2113 24.0625 32.5928C24.0625 30.9714 25.3816 29.6523 27.003 29.6523C28.6215 29.6523 29.9382 30.9714 29.9382 32.5928C29.9382 34.2113 28.6215 35.528 27.003 35.528ZM27.003 30.707C25.9632 30.707 25.1172 31.553 25.1172 32.5928C25.1172 33.6297 25.9632 34.4733 27.003 34.4733C28.0398 34.4733 28.8835 33.6297 28.8835 32.5928C28.8835 31.553 28.0398 30.707 27.003 30.707Z" fill="black"/>
<path d="M37.4941 51.7852H16.5059C13.569 51.7852 11.1797 49.3959 11.1797 46.459V7.54102C11.1797 4.60413 13.569 2.21484 16.5059 2.21484H37.4941C40.431 2.21484 42.8203 4.60413 42.8203 7.54102V46.459C42.8203 49.3959 40.431 51.7852 37.4941 51.7852ZM16.5059 3.26953C14.1505 3.26953 12.2344 5.18569 12.2344 7.54102V46.459C12.2344 48.8143 14.1505 50.7305 16.5059 50.7305H37.4941C39.8495 50.7305 41.7656 48.8143 41.7656 46.459V7.54102C41.7656 5.18569 39.8495 3.26953 37.4941 3.26953H16.5059Z" fill="black"/>
<path d="M38.6016 44.4023H15.3984C15.1072 44.4023 14.8711 44.1663 14.8711 43.875V6.96094C14.8711 6.66974 15.1072 6.43359 15.3984 6.43359H38.6016C38.8929 6.43359 39.1289 6.66974 39.1289 6.96094V43.875C39.1289 44.1663 38.8929 44.4023 38.6016 44.4023ZM15.9258 43.3477H38.0742V7.48828H15.9258V43.3477Z" fill="black"/>
<path d="M29.1094 49.1484H24.8906C24.0183 49.1484 23.3086 48.4387 23.3086 47.5664C23.3086 46.6941 24.0183 45.9844 24.8906 45.9844H29.1094C29.9817 45.9844 30.6914 46.6941 30.6914 47.5664C30.6914 48.4387 29.9817 49.1484 29.1094 49.1484ZM24.8906 47.0391C24.5998 47.0391 24.3633 47.2756 24.3633 47.5664C24.3633 47.8572 24.5998 48.0938 24.8906 48.0938H29.1094C29.4002 48.0938 29.6367 47.8572 29.6367 47.5664C29.6367 47.2756 29.4002 47.0391 29.1094 47.0391H24.8906Z" fill="black"/>
<path d="M36.4922 48.0938H33.3281C33.0368 48.0938 32.8008 47.8577 32.8008 47.5664C32.8008 47.2751 33.0368 47.0391 33.3281 47.0391H36.4922C36.7835 47.0391 37.0195 47.2751 37.0195 47.5664C37.0195 47.8577 36.7835 48.0938 36.4922 48.0938Z" fill="black"/>
<path d="M20.6719 48.0938H17.5078C17.2166 48.0938 16.9805 47.8577 16.9805 47.5664C16.9805 47.2751 17.2166 47.0391 17.5078 47.0391H20.6719C20.9631 47.0391 21.1992 47.2751 21.1992 47.5664C21.1992 47.8577 20.9631 48.0938 20.6719 48.0938Z" fill="black"/>
</svg>
