<svg width="73" height="72" viewBox="0 0 73 72" fill="none" xmlns="http://www.w3.org/2000/svg">
<ellipse cx="44" cy="28.5" rx="29" ry="28.5" fill="#87C5A7"/>
<path d="M38.1603 17.9241C38.1366 17.9219 38.1107 17.9219 38.0848 17.9219C37.1921 17.9219 36.4676 18.6464 36.4676 19.5391C36.4676 20.3994 37.1404 21.1045 37.9899 21.1541H37.9942C45.6123 21.6522 51.6023 27.9528 51.6023 35.6506C51.6023 36.0516 51.5851 36.4484 51.5549 36.8408L51.5592 36.7891C51.5592 37.6818 52.2837 38.4063 53.1764 38.4063C54.0691 38.4063 54.7936 37.6818 54.7936 36.7891C54.813 36.4807 54.8238 36.1206 54.8238 35.7562C54.8238 26.3119 47.499 18.5774 38.2207 17.9262L38.1646 17.9241H38.1603ZM38.0007 9.54487C38.9689 9.59231 61.7151 11.0284 61.7151 36.7891C61.7151 37.6818 62.4396 38.4063 63.3323 38.4063C64.225 38.4063 64.9495 37.6818 64.9495 36.7891C64.9818 36.2759 65.0013 35.6786 65.0013 35.0749C65.0013 19.8539 53.2044 7.38647 38.253 6.32128L38.1603 6.31697C38.1409 6.31697 38.1193 6.31481 38.0977 6.31481C37.2288 6.31481 36.5194 6.99187 36.4655 7.84575V7.85006C36.4633 7.87378 36.4633 7.90181 36.4633 7.92984C36.4633 8.7945 37.1425 9.50175 37.9964 9.54487H38.0007ZM65.329 53.5345C65.094 52.079 64.6088 50.7723 63.9188 49.6036L63.9468 49.6554C63.701 49.2543 63.2978 48.9719 62.8234 48.8942L62.8148 48.8921L43.4754 45.8216C43.4 45.8087 43.3116 45.8022 43.2232 45.8022C42.7768 45.8022 42.3714 45.9812 42.0782 46.2722C40.6206 47.7385 39.5036 49.5411 38.8524 51.5572L38.8266 51.6521C30.1671 48.1158 23.4288 41.3776 19.9766 32.9466L19.8947 32.7202C22.0035 32.0432 23.8061 30.9241 25.2702 29.4664C25.5635 29.1732 25.7446 28.7678 25.7446 28.3215C25.7446 28.2331 25.7381 28.1468 25.723 28.0627L25.7252 28.0714L22.6525 8.73197C22.5749 8.24897 22.2924 7.84359 21.8979 7.60209L21.8914 7.59778C20.8025 6.94875 19.5325 6.47222 18.174 6.24797L18.1115 6.23934C17.4323 6.08841 16.6517 6 15.8517 6C15.7978 6 15.7439 6 15.69 6.00216H15.6986H15.6857C8.14531 6.05391 2.04528 12.1582 2 19.6965V19.7008C2.03234 47.2167 24.3279 69.5144 51.8417 69.5468H51.846C59.3929 69.4972 65.4972 63.3929 65.5468 55.8525V55.8481C65.5468 55.805 65.5468 55.7533 65.5468 55.7015C65.5468 54.9339 65.4692 54.1857 65.3182 53.4633L65.3312 53.5345H65.329ZM51.8438 66.3124C26.1133 66.2822 5.26456 45.4313 5.23437 19.703C5.27534 13.9393 9.93931 9.27534 15.7008 9.23653H15.7051C15.7396 9.23653 15.7827 9.23653 15.8237 9.23653C16.4102 9.23653 16.9816 9.30122 17.5336 9.42197L17.4819 9.41118C18.271 9.54056 18.9805 9.75834 19.6446 10.0581L19.5907 10.0365L22.3981 27.722C21.044 28.8605 19.3707 29.6648 17.5315 29.9861L17.4689 29.9947C16.7035 30.1327 16.132 30.7925 16.132 31.5882C16.132 31.7779 16.1644 31.9591 16.2248 32.1273L16.2205 32.1165C20.0413 43.053 28.5003 51.5098 39.1759 55.2509L39.4368 55.3306C39.5942 55.3867 39.7753 55.4191 39.9651 55.4191C40.7586 55.4191 41.4184 54.8476 41.5542 54.093L41.5564 54.0822C41.8863 52.1804 42.6906 50.5071 43.8442 49.1336L43.8312 49.1487L61.5146 51.9583C61.8014 52.5922 62.0256 53.3296 62.1529 54.1016L62.1593 54.1533C62.2585 54.6256 62.3167 55.1689 62.3167 55.7252C62.3167 55.7641 62.3167 55.8007 62.3167 55.8395V55.833C62.2822 61.601 57.6183 66.2693 51.8546 66.3103H51.8503L51.8438 66.3124Z" fill="black"/>
</svg>
