<svg width="87" height="87" viewBox="0 0 87 87" fill="none" xmlns="http://www.w3.org/2000/svg">
<path d="M62.5001 2H46.0001C41.0001 4.5 38.1079 7.36075 35.5001 12C35.2346 16.4913 35.1301 19.0084 35.5001 23.5M62.5001 2C68.201 5.80055 69.7939 8.7842 73.0001 16.5V22M62.5001 2C62.362 4.78785 63.0001 5 62.0001 9C61.0001 13 54.4656 16.5378 48.5001 19.5C44.8945 21.0008 42.3833 21.8479 39.0001 22.7431M58.5001 43C59.6347 46.5277 60.4402 48.0976 62.5001 49.5C65.5723 49.8763 67.6617 49.8864 73.0001 49L75.5001 46C75.8714 42.3755 76.0641 40.2376 75.5001 36C74.642 34.2932 74.0617 33.628 73.0001 32.5C72.4893 29.2202 72.7684 26.4731 73.0001 22M58.5001 43H46.0001M58.5001 43C61.5451 41.1872 65.5 38.5 66.0001 35V22M46.0001 43C45.1959 46.0718 44.846 47.8896 42.5001 49.5C37.6279 49.825 35.227 49.7787 32.0001 49C30.3031 47.9053 29.5181 46.9763 28.5001 44.5C28.0813 41.0872 28.0237 39.1027 28.5001 35.5C29.6971 33.8411 30.4197 32.9247 32.5001 31.5C34.0025 30.4075 34.628 29.8313 35.5001 29V23.5M46.0001 43C42.1044 41.1676 39.0001 37.5 39.0001 35V22.7431M35.5001 23.5H36.0001C37.0914 23.2347 38.0782 22.9871 39.0001 22.7431M55.5 15.7021L61.0001 19.5L66.0001 22M66.0001 22H73.0001" stroke="black" stroke-width="3"/>
<path d="M22.5 80L22 63.5C22 58.5 27.4524 54.0092 32.5 52H39V55.5M39 62.5V60.5V55.5M39 62.5H32.5V85.5H1H75.5M39 62.5H65.5M65.5 55.5V52H74C81 55 85.5 58.5 85.5 64.7062V85.5H75.5M65.5 55.5H39M65.5 55.5V62.5M65.5 62.5H75.5V85.5" stroke="black" stroke-width="3"/>
<path d="M51 68H56.5M51 73C51.4 73 54.8333 73 56.5 73M51 78H56H56.5" stroke="#446759" stroke-width="3"/>
<path d="M22.5 2.49994C17.5879 1.84862 14.3009 1.82468 9.5 2.5C4.94725 4.9295 2.49998 8.49985 2.00003 10.9999C2.00003 10.9999 1.50008 16 2.00003 18.9999C2.49998 21.9999 9.59582 28.9054 14 29.4999H29C26.9403 28.7549 25.9451 28.0695 25 26.4999C26.9634 25.0775 28.5 21.9999 29 20.4999L29.0058 20.4539C29.502 16.4842 29.7594 14.425 29 9.49994C27.3773 6.1432 26.2568 4.68878 22.5 2.49994Z" stroke="#446759" stroke-width="3"/>
<path d="M11 15V17V14M16 16.5V14.5V14V17M20.5 14V17" stroke="#446759" stroke-width="3"/>
</svg>
