<svg width="52" height="52" viewBox="0 0 52 52" fill="none" xmlns="http://www.w3.org/2000/svg">
<g clip-path="url(#clip0_205_75)">
<path d="M44.5 25.5H8V36L17 39.5L26 37L35 39.5L44.5 36V25.5Z" fill="#2D654B"/>
<path d="M28 28H41V34L34 36L28 34V28Z" fill="white"/>
<path d="M11 28H24V34L17 36L11 34V28Z" fill="white"/>
<path d="M49.4835 10.0652H41.9352V9.22648C41.9352 4.13974 37.7962 0.000732422 32.7094 0.000732422H19.2902C14.2035 0.000732422 10.0645 4.13974 10.0645 9.22648V10.0652H2.51616C1.12898 10.0652 0 11.194 0 12.5814V44.4521C0 45.8392 1.12898 46.9682 2.51616 46.9682H15.0968V50.3231H10.9032V52.0005H15.0968H36.9032H41.0968V50.3231H36.9032V46.9682H49.4838C50.871 46.9682 52 45.8392 52 44.4521V12.5814C51.9996 11.194 50.8708 10.0652 49.4835 10.0652ZM11.7419 9.22631C11.7419 5.06388 15.1278 1.678 19.2902 1.678H32.7094C36.8718 1.678 40.2577 5.06388 40.2577 9.22631V10.9037C40.2577 15.0662 36.8718 18.4521 32.7094 18.4521H19.2902C15.1278 18.4521 11.7419 15.0662 11.7419 10.9037V9.22631ZM19.2902 20.1297H32.7094C36.2857 20.1297 39.3864 18.0799 40.917 15.0975H46.9673V41.9361H5.03215V15.0972H11.0825C12.6132 18.0799 15.714 20.1297 19.2902 20.1297ZM35.2256 50.3227H16.7741V46.9679H35.2256V50.3227ZM49.4835 45.2906H36.9028H15.0966H2.51616C2.05312 45.2906 1.67744 44.9149 1.67744 44.4519V12.5814C1.67744 12.1183 2.05312 11.7426 2.51616 11.7426H10.1073C10.1592 12.3196 10.2683 12.879 10.4225 13.4201H3.35488V43.6133H48.6448V13.4199H41.5778C41.7312 12.879 41.8402 12.3188 41.8931 11.7425H49.4833C49.9463 11.7425 50.322 12.1182 50.322 12.5812V44.4521C50.322 44.9151 49.9465 45.2906 49.4835 45.2906Z" fill="black"/>
<path d="M25.9997 37.7719L35.2616 40.2981L45.2899 36.6514V25.1612V24.3225V24.1698L42.7209 17.3175L41.15 17.9072L43.5554 24.3225H8.44398L10.8494 17.9082L9.27847 17.3186L6.70947 24.1699V24.3226V25.1614V36.6516L16.7378 40.2981L25.9997 37.7719ZM8.38691 26.0001H43.6125V35.4775L35.1894 38.5404L25.9997 36.0343L16.8101 38.5404L8.38691 35.4775V26.0001Z" fill="black"/>
<path d="M25.1611 34.5236V27.6774H10.0645V34.3015L16.8839 36.7807L25.1611 34.5236ZM11.7419 29.3548H23.4838V33.243L16.9562 35.0237L11.7419 33.1273V29.3548Z" fill="black"/>
<path d="M41.935 34.3015V27.6774H26.8384V34.5236L35.1164 36.7805L41.935 34.3015ZM28.5158 33.243V29.3548H40.2577V33.1273L35.0444 35.0237L28.5158 33.243Z" fill="black"/>
<path d="M25.1609 13.0003C25.1609 11.816 24.6132 10.7568 23.7561 10.0647C24.6134 9.37274 25.1609 8.31351 25.1609 7.12922C25.1609 5.04845 23.4676 3.35498 21.3867 3.35498H18.4512V5.03242H21.3867C22.5433 5.03242 23.4835 5.97259 23.4835 7.12922C23.4835 8.28586 22.5433 9.22603 21.3867 9.22603H18.4512V10.9035H21.3867C22.5433 10.9035 23.4835 11.8436 23.4835 13.0003C23.4835 14.1569 22.5433 15.0971 21.3867 15.0971H18.4512V16.7745H21.3867C23.4676 16.7742 25.1609 15.081 25.1609 13.0003Z" fill="black"/>
<path d="M34.3869 13.4194V6.70962C34.3869 4.8594 32.8822 3.35474 31.032 3.35474H26.8384V16.7739H31.032C32.8822 16.7741 34.3869 15.2696 34.3869 13.4194ZM28.516 5.03218H31.0322C31.9572 5.03218 32.7096 5.78442 32.7096 6.70962V13.4192C32.7096 14.3442 31.9574 15.0967 31.0322 15.0967H28.516V5.03218Z" fill="black"/>
<path d="M14.2582 10.9034C14.7214 10.9034 15.0969 10.5279 15.0969 10.0647C15.0969 9.60146 14.7214 9.22595 14.2582 9.22595C13.7949 9.22595 13.4194 9.60146 13.4194 10.0647C13.4194 10.5279 13.7949 10.9034 14.2582 10.9034Z" fill="black"/>
<path d="M37.7416 10.9034C38.2048 10.9034 38.5803 10.5279 38.5803 10.0647C38.5803 9.60146 38.2048 9.22595 37.7416 9.22595C37.2783 9.22595 36.9028 9.60146 36.9028 10.0647C36.9028 10.5279 37.2783 10.9034 37.7416 10.9034Z" fill="black"/>
</g>
<defs>
<clipPath id="clip0_205_75">
<rect width="52" height="52" fill="white"/>
</clipPath>
</defs>
</svg>
