<svg width="58" height="58" viewBox="0 0 58 58" fill="none" xmlns="http://www.w3.org/2000/svg">
<rect x="11" y="23" width="16" height="8" fill="#2D654B"/>
<path d="M27.3008 31.2656H10.875C10.5622 31.2656 10.3086 31.0121 10.3086 30.6992V22.7695C10.3086 22.4568 10.5622 22.2031 10.875 22.2031H27.3008C27.6136 22.2031 27.8672 22.4568 27.8672 22.7695V30.6992C27.8672 31.0121 27.6136 31.2656 27.3008 31.2656ZM11.4414 30.1328H26.7344V23.3359H11.4414V30.1328Z" fill="black"/>
<path d="M45.9922 44.293H10.875C10.5622 44.293 10.3086 44.0394 10.3086 43.7266V16.5391C10.3086 16.2263 10.5622 15.9727 10.875 15.9727H45.9922C46.3051 15.9727 46.5586 16.2263 46.5586 16.5391V43.7266C46.5586 44.0394 46.3051 44.293 45.9922 44.293ZM11.4414 43.1602H45.4258V17.1055H11.4414V43.1602Z" fill="black"/>
<path d="M51.6562 17.1055H6.34375C6.03098 17.1055 5.77734 16.8518 5.77734 16.5391C5.77734 16.2263 6.03098 15.9727 6.34375 15.9727H51.6562C51.9691 15.9727 52.2227 16.2263 52.2227 16.5391C52.2227 16.8518 51.9691 17.1055 51.6562 17.1055Z" fill="black"/>
<path d="M48.3143 50.5234H9.68566C7.5306 50.5234 5.77734 48.7702 5.77734 46.6151V11.4414C5.77734 9.28633 7.5306 7.53308 9.68566 7.53308H48.3145C50.4694 7.53308 52.2227 9.28633 52.2227 11.4413V46.6151C52.2227 48.7702 50.4693 50.5234 48.3143 50.5234ZM9.68566 8.66589C8.15523 8.66589 6.91016 9.91097 6.91016 11.4414V46.6151C6.91016 48.1455 8.15523 49.3906 9.68566 49.3906H48.3143C49.8448 49.3906 51.0898 48.1455 51.0898 46.6151V11.4413C51.0898 9.91097 49.8449 8.66589 48.3145 8.66589H9.68566Z" fill="black"/>
<path d="M46.5586 14.8398C45.3093 14.8398 44.293 13.8235 44.293 12.5742C44.293 11.325 45.3093 10.3086 46.5586 10.3086C47.8079 10.3086 48.8242 11.325 48.8242 12.5742C48.8242 13.8235 47.8079 14.8398 46.5586 14.8398ZM46.5586 11.4414C45.934 11.4414 45.4258 11.9496 45.4258 12.5742C45.4258 13.1989 45.934 13.707 46.5586 13.707C47.1832 13.707 47.6914 13.1989 47.6914 12.5742C47.6914 11.9496 47.1832 11.4414 46.5586 11.4414Z" fill="black"/>
<path d="M40.8945 14.8398C39.6453 14.8398 38.6289 13.8235 38.6289 12.5742C38.6289 11.325 39.6453 10.3086 40.8945 10.3086C42.1438 10.3086 43.1602 11.325 43.1602 12.5742C43.1602 13.8235 42.1438 14.8398 40.8945 14.8398ZM40.8945 11.4414C40.2699 11.4414 39.7617 11.9496 39.7617 12.5742C39.7617 13.1989 40.2699 13.707 40.8945 13.707C41.5192 13.707 42.0273 13.1989 42.0273 12.5742C42.0273 11.9496 41.5192 11.4414 40.8945 11.4414Z" fill="black"/>
<path d="M35.2305 14.8398C33.9812 14.8398 32.9648 13.8235 32.9648 12.5742C32.9648 11.325 33.9812 10.3086 35.2305 10.3086C36.4797 10.3086 37.4961 11.325 37.4961 12.5742C37.4961 13.8235 36.4797 14.8398 35.2305 14.8398ZM35.2305 11.4414C34.6058 11.4414 34.0977 11.9496 34.0977 12.5742C34.0977 13.1989 34.6058 13.707 35.2305 13.707C35.8551 13.707 36.3633 13.1989 36.3633 12.5742C36.3633 11.9496 35.8551 11.4414 35.2305 11.4414Z" fill="black"/>
<path d="M15.9727 17.1055C15.6599 17.1055 15.4062 16.8518 15.4062 16.5391V8.04297C15.4062 7.7302 15.6599 7.47656 15.9727 7.47656C16.2854 7.47656 16.5391 7.7302 16.5391 8.04297V16.5391C16.5391 16.8518 16.2854 17.1055 15.9727 17.1055Z" fill="black"/>
<path d="M38.0625 44.293C33.3778 44.293 29.5664 40.4816 29.5664 35.7969C29.5664 31.1121 33.3778 27.3008 38.0625 27.3008C42.7472 27.3008 46.5586 31.1121 46.5586 35.7969C46.5586 40.4816 42.7472 44.293 38.0625 44.293ZM38.0625 28.4336C34.0024 28.4336 30.6992 31.7368 30.6992 35.7969C30.6992 39.857 34.0024 43.1602 38.0625 43.1602C42.1226 43.1602 45.4258 39.857 45.4258 35.7969C45.4258 31.7368 42.1226 28.4336 38.0625 28.4336Z" fill="black"/>
<path d="M36.5 34L38 31.5L39.5 34L42 34.5L40 36.5L40.5 39.5L38 38L35 40L36 36.5L34 34.5L36.5 34Z" fill="#2D654B"/>
<path d="M41.2033 40.6862C41.0865 40.6862 40.9696 40.6502 40.8704 40.578L38.0624 38.538L35.2545 40.578C35.0561 40.7222 34.7872 40.7222 34.5888 40.578C34.3902 40.4338 34.3072 40.1781 34.3831 39.9448L35.4555 36.6439L32.6476 34.6039C32.449 34.4597 32.366 34.204 32.4419 33.9706C32.5177 33.7372 32.7352 33.5793 32.9805 33.5793H36.4513L37.5239 30.2784C37.5997 30.0449 37.8172 29.887 38.0625 29.887C38.3079 29.887 38.5254 30.045 38.6012 30.2784L39.6737 33.5793H43.1446C43.3899 33.5793 43.6074 33.7373 43.6832 33.9706C43.7591 34.204 43.6761 34.4596 43.4775 34.6039L40.6697 36.644L41.7421 39.9449C41.818 40.1782 41.735 40.4338 41.5364 40.5781C41.4368 40.6502 41.3201 40.6862 41.2033 40.6862ZM38.0624 37.2715C38.1792 37.2715 38.2961 37.3076 38.3952 37.3797L40.1258 38.637L39.4648 36.6026C39.3889 36.3693 39.472 36.1137 39.6706 35.9694L41.4009 34.7121H39.2621C39.0167 34.7121 38.7992 34.554 38.7234 34.3207L38.0624 32.2864L37.4014 34.3207C37.3256 34.5542 37.1081 34.7121 36.8628 34.7121H34.7237L36.4541 35.9694C36.6526 36.1136 36.7357 36.3693 36.6598 36.6026L35.9988 38.637L37.7294 37.3797C37.8288 37.3076 37.9456 37.2715 38.0624 37.2715Z" fill="black"/>
</svg>
